<mxfile host="app.diagrams.net" agent="Mozilla/5.0 (Windows NT 10.0; Win64; x64) AppleWebKit/537.36 (KHTML, like Gecko) Chrome/136.0.0.0 Safari/537.36 Edg/136.0.0.0" version="27.1.3" pages="2">
  <diagram name="个性化推荐" id="G0H7IyGnrjpmIYspU1El">
    <mxGraphModel dx="1378" dy="764" grid="1" gridSize="10" guides="1" tooltips="1" connect="1" arrows="1" fold="1" page="1" pageScale="1" pageWidth="827" pageHeight="1169" math="0" shadow="0">
      <root>
        <mxCell id="0" />
        <mxCell id="1" parent="0" />
        <mxCell id="TEBb85Tj5FxcyDQN6sWw-12" value="Start" style="whiteSpace=wrap;strokeWidth=2;" vertex="1" parent="1">
          <mxGeometry x="390" y="20" width="95" height="54" as="geometry" />
        </mxCell>
        <mxCell id="vusLxegBLUPvO0g1GqJQ-8" value="" style="edgeStyle=orthogonalEdgeStyle;rounded=0;orthogonalLoop=1;jettySize=auto;html=1;" edge="1" parent="1" source="TEBb85Tj5FxcyDQN6sWw-13" target="TEBb85Tj5FxcyDQN6sWw-14">
          <mxGeometry relative="1" as="geometry" />
        </mxCell>
        <mxCell id="vusLxegBLUPvO0g1GqJQ-9" value="Yes" style="edgeLabel;html=1;align=center;verticalAlign=middle;resizable=0;points=[];" vertex="1" connectable="0" parent="vusLxegBLUPvO0g1GqJQ-8">
          <mxGeometry x="0.033" y="-2" relative="1" as="geometry">
            <mxPoint x="1" as="offset" />
          </mxGeometry>
        </mxCell>
        <mxCell id="TEBb85Tj5FxcyDQN6sWw-13" value="userId is numeric?" style="rhombus;strokeWidth=1;whiteSpace=wrap;" vertex="1" parent="1">
          <mxGeometry x="372.5" y="92" width="130" height="78" as="geometry" />
        </mxCell>
        <mxCell id="TEBb85Tj5FxcyDQN6sWw-14" value="Call KG: /content/recommend/nextBatch" style="whiteSpace=wrap;strokeWidth=2;" vertex="1" parent="1">
          <mxGeometry x="30" y="111.5" width="297" height="39" as="geometry" />
        </mxCell>
        <mxCell id="TEBb85Tj5FxcyDQN6sWw-15" value="Filter by local playable sources" style="whiteSpace=wrap;strokeWidth=2;" vertex="1" parent="1">
          <mxGeometry x="48.5" y="170" width="260" height="30" as="geometry" />
        </mxCell>
        <mxCell id="vusLxegBLUPvO0g1GqJQ-12" style="edgeStyle=orthogonalEdgeStyle;rounded=0;orthogonalLoop=1;jettySize=auto;html=1;exitX=0.5;exitY=1;exitDx=0;exitDy=0;entryX=0;entryY=0.5;entryDx=0;entryDy=0;" edge="1" parent="1" source="TEBb85Tj5FxcyDQN6sWw-16" target="TEBb85Tj5FxcyDQN6sWw-21">
          <mxGeometry relative="1" as="geometry" />
        </mxCell>
        <mxCell id="vusLxegBLUPvO0g1GqJQ-13" value="Yes" style="edgeLabel;html=1;align=center;verticalAlign=middle;resizable=0;points=[];" vertex="1" connectable="0" parent="vusLxegBLUPvO0g1GqJQ-12">
          <mxGeometry x="-0.4589" relative="1" as="geometry">
            <mxPoint as="offset" />
          </mxGeometry>
        </mxCell>
        <mxCell id="TEBb85Tj5FxcyDQN6sWw-16" value="KG results sufficient?" style="rhombus;strokeWidth=2;whiteSpace=wrap;" vertex="1" parent="1">
          <mxGeometry x="103" y="230" width="151" height="84" as="geometry" />
        </mxCell>
        <mxCell id="TEBb85Tj5FxcyDQN6sWw-18" value="ES Query-1: originCountryCode=local, language, coverShape, releaseTime" style="whiteSpace=wrap;strokeWidth=2;" vertex="1" parent="1">
          <mxGeometry x="330" y="240" width="260" height="60" as="geometry" />
        </mxCell>
        <mxCell id="vusLxegBLUPvO0g1GqJQ-1" value="" style="edgeStyle=orthogonalEdgeStyle;rounded=0;orthogonalLoop=1;jettySize=auto;html=1;" edge="1" parent="1" source="TEBb85Tj5FxcyDQN6sWw-19" target="TEBb85Tj5FxcyDQN6sWw-20">
          <mxGeometry relative="1" as="geometry">
            <Array as="points" />
          </mxGeometry>
        </mxCell>
        <mxCell id="vusLxegBLUPvO0g1GqJQ-3" value="No" style="edgeLabel;html=1;align=center;verticalAlign=middle;resizable=0;points=[];" vertex="1" connectable="0" parent="vusLxegBLUPvO0g1GqJQ-1">
          <mxGeometry x="-0.3296" y="1" relative="1" as="geometry">
            <mxPoint as="offset" />
          </mxGeometry>
        </mxCell>
        <mxCell id="vusLxegBLUPvO0g1GqJQ-10" style="edgeStyle=orthogonalEdgeStyle;rounded=0;orthogonalLoop=1;jettySize=auto;html=1;entryX=0;entryY=0.5;entryDx=0;entryDy=0;" edge="1" parent="1" source="TEBb85Tj5FxcyDQN6sWw-19" target="TEBb85Tj5FxcyDQN6sWw-21">
          <mxGeometry relative="1" as="geometry">
            <mxPoint x="190" y="510" as="targetPoint" />
            <Array as="points">
              <mxPoint x="250" y="350" />
              <mxPoint x="250" y="541" />
            </Array>
          </mxGeometry>
        </mxCell>
        <mxCell id="vusLxegBLUPvO0g1GqJQ-11" value="Yes" style="edgeLabel;html=1;align=center;verticalAlign=middle;resizable=0;points=[];" vertex="1" connectable="0" parent="vusLxegBLUPvO0g1GqJQ-10">
          <mxGeometry x="-0.0536" y="-1" relative="1" as="geometry">
            <mxPoint as="offset" />
          </mxGeometry>
        </mxCell>
        <mxCell id="TEBb85Tj5FxcyDQN6sWw-19" value="Results sufficient?" style="rhombus;strokeWidth=2;whiteSpace=wrap;" vertex="1" parent="1">
          <mxGeometry x="353" y="320" width="177.5" height="60" as="geometry" />
        </mxCell>
        <mxCell id="vusLxegBLUPvO0g1GqJQ-2" value="" style="edgeStyle=orthogonalEdgeStyle;rounded=0;orthogonalLoop=1;jettySize=auto;html=1;" edge="1" parent="1" source="TEBb85Tj5FxcyDQN6sWw-20" target="TEBb85Tj5FxcyDQN6sWw-21">
          <mxGeometry relative="1" as="geometry" />
        </mxCell>
        <mxCell id="TEBb85Tj5FxcyDQN6sWw-20" value="ES Query-2: language, coverShape, releaseTime" style="whiteSpace=wrap;strokeWidth=2;" vertex="1" parent="1">
          <mxGeometry x="311.75" y="414" width="260" height="78" as="geometry" />
        </mxCell>
        <mxCell id="TEBb85Tj5FxcyDQN6sWw-21" value="Return results" style="whiteSpace=wrap;strokeWidth=2;" vertex="1" parent="1">
          <mxGeometry x="361.75" y="514" width="160" height="54" as="geometry" />
        </mxCell>
        <mxCell id="TEBb85Tj5FxcyDQN6sWw-22" value="" style="curved=1;startArrow=none;endArrow=block;exitX=0.5;exitY=1;entryX=0.5;entryY=0;rounded=0;" edge="1" parent="1" source="TEBb85Tj5FxcyDQN6sWw-12" target="TEBb85Tj5FxcyDQN6sWw-13">
          <mxGeometry relative="1" as="geometry">
            <Array as="points" />
          </mxGeometry>
        </mxCell>
        <mxCell id="TEBb85Tj5FxcyDQN6sWw-24" value="" style="curved=1;startArrow=none;endArrow=block;exitX=0.5;exitY=1;entryX=0.5;entryY=0;rounded=0;" edge="1" parent="1" source="TEBb85Tj5FxcyDQN6sWw-14" target="TEBb85Tj5FxcyDQN6sWw-15">
          <mxGeometry relative="1" as="geometry">
            <Array as="points" />
          </mxGeometry>
        </mxCell>
        <mxCell id="TEBb85Tj5FxcyDQN6sWw-25" value="" style="curved=1;startArrow=none;endArrow=block;exitX=0.5;exitY=1;entryX=0.5;entryY=0;rounded=0;" edge="1" parent="1" source="TEBb85Tj5FxcyDQN6sWw-15" target="TEBb85Tj5FxcyDQN6sWw-16">
          <mxGeometry relative="1" as="geometry">
            <Array as="points" />
          </mxGeometry>
        </mxCell>
        <mxCell id="TEBb85Tj5FxcyDQN6sWw-26" value="No" style="curved=1;startArrow=none;endArrow=block;exitX=0.5;exitY=1;rounded=0;exitDx=0;exitDy=0;" edge="1" parent="1" source="TEBb85Tj5FxcyDQN6sWw-13">
          <mxGeometry relative="1" as="geometry">
            <Array as="points" />
            <mxPoint x="438" y="250" as="targetPoint" />
          </mxGeometry>
        </mxCell>
        <mxCell id="TEBb85Tj5FxcyDQN6sWw-27" value="No" style="curved=1;startArrow=none;endArrow=block;exitX=1;exitY=0.5;entryX=0;entryY=0.5;rounded=0;exitDx=0;exitDy=0;entryDx=0;entryDy=0;" edge="1" parent="1" source="TEBb85Tj5FxcyDQN6sWw-16" target="TEBb85Tj5FxcyDQN6sWw-18">
          <mxGeometry relative="1" as="geometry">
            <Array as="points" />
          </mxGeometry>
        </mxCell>
        <mxCell id="TEBb85Tj5FxcyDQN6sWw-28" value="" style="curved=1;startArrow=none;endArrow=block;exitX=0.427;exitY=1.033;rounded=0;exitDx=0;exitDy=0;exitPerimeter=0;" edge="1" parent="1" source="TEBb85Tj5FxcyDQN6sWw-18" target="TEBb85Tj5FxcyDQN6sWw-19">
          <mxGeometry relative="1" as="geometry">
            <Array as="points" />
          </mxGeometry>
        </mxCell>
      </root>
    </mxGraphModel>
  </diagram>
  <diagram id="-gYIluC29oDaU4h5rxoa" name="相似推荐">
    <mxGraphModel dx="1378" dy="764" grid="1" gridSize="10" guides="1" tooltips="1" connect="1" arrows="1" fold="1" page="1" pageScale="1" pageWidth="827" pageHeight="1169" math="0" shadow="0">
      <root>
        <mxCell id="0" />
        <mxCell id="1" parent="0" />
        <mxCell id="7xzMSteyIXWfxa7V5cFR-1" value="Start" style="whiteSpace=wrap;strokeWidth=2;" vertex="1" parent="1">
          <mxGeometry x="290" y="20" width="95" height="54" as="geometry" />
        </mxCell>
        <mxCell id="7xzMSteyIXWfxa7V5cFR-2" value="Has standard category?" style="rhombus;strokeWidth=2;whiteSpace=wrap;" vertex="1" parent="1">
          <mxGeometry x="228" y="94" width="219" height="219" as="geometry" />
        </mxCell>
        <mxCell id="7xzMSteyIXWfxa7V5cFR-3" value="Use standard category" style="whiteSpace=wrap;strokeWidth=2;" vertex="1" parent="1">
          <mxGeometry x="104" y="416" width="220" height="54" as="geometry" />
        </mxCell>
        <mxCell id="7xzMSteyIXWfxa7V5cFR-4" value="Use CP category" style="whiteSpace=wrap;strokeWidth=2;" vertex="1" parent="1">
          <mxGeometry x="374" y="416" width="176" height="54" as="geometry" />
        </mxCell>
        <mxCell id="7xzMSteyIXWfxa7V5cFR-5" value="Call KG: /content/recommend/similar" style="whiteSpace=wrap;strokeWidth=2;" vertex="1" parent="1">
          <mxGeometry x="201" y="520" width="273" height="78" as="geometry" />
        </mxCell>
        <mxCell id="7xzMSteyIXWfxa7V5cFR-6" value="Filter by local playable sources" style="whiteSpace=wrap;strokeWidth=2;" vertex="1" parent="1">
          <mxGeometry x="208" y="648" width="260" height="78" as="geometry" />
        </mxCell>
        <mxCell id="7xzMSteyIXWfxa7V5cFR-7" value="KG results sufficient?" style="rhombus;strokeWidth=2;whiteSpace=wrap;" vertex="1" parent="1">
          <mxGeometry x="235" y="776" width="205" height="205" as="geometry" />
        </mxCell>
        <mxCell id="7xzMSteyIXWfxa7V5cFR-8" value="ES Query-1: originCountryCode=local, language, coverShape, releaseTime,exclude dataId,target category" style="whiteSpace=wrap;strokeWidth=2;" vertex="1" parent="1">
          <mxGeometry x="208" y="1055" width="260" height="126" as="geometry" />
        </mxCell>
        <mxCell id="7xzMSteyIXWfxa7V5cFR-9" value="Results sufficient?" style="rhombus;strokeWidth=2;whiteSpace=wrap;" vertex="1" parent="1">
          <mxGeometry x="246" y="1231" width="183" height="183" as="geometry" />
        </mxCell>
        <mxCell id="7xzMSteyIXWfxa7V5cFR-10" value="ES Query-2: language, coverShape, releaseTime,exclude dataId,target category" style="whiteSpace=wrap;strokeWidth=2;" vertex="1" parent="1">
          <mxGeometry x="297" y="1486" width="260" height="78" as="geometry" />
        </mxCell>
        <mxCell id="7xzMSteyIXWfxa7V5cFR-11" value="Return results" style="whiteSpace=wrap;strokeWidth=2;" vertex="1" parent="1">
          <mxGeometry x="258" y="1614" width="160" height="54" as="geometry" />
        </mxCell>
        <mxCell id="7xzMSteyIXWfxa7V5cFR-13" value="" style="curved=1;startArrow=none;endArrow=block;exitX=0.5;exitY=1;entryX=0.5;entryY=0;rounded=0;" edge="1" parent="1" source="7xzMSteyIXWfxa7V5cFR-1" target="7xzMSteyIXWfxa7V5cFR-2">
          <mxGeometry relative="1" as="geometry">
            <Array as="points" />
          </mxGeometry>
        </mxCell>
        <mxCell id="7xzMSteyIXWfxa7V5cFR-14" value="Yes" style="curved=1;startArrow=none;endArrow=block;exitX=0.08;exitY=1;entryX=0.5;entryY=0.01;rounded=0;" edge="1" parent="1" source="7xzMSteyIXWfxa7V5cFR-2" target="7xzMSteyIXWfxa7V5cFR-3">
          <mxGeometry relative="1" as="geometry">
            <Array as="points">
              <mxPoint x="214" y="380" />
            </Array>
          </mxGeometry>
        </mxCell>
        <mxCell id="7xzMSteyIXWfxa7V5cFR-15" value="No" style="curved=1;startArrow=none;endArrow=block;exitX=0.93;exitY=1;entryX=0.5;entryY=0.01;rounded=0;" edge="1" parent="1" source="7xzMSteyIXWfxa7V5cFR-2" target="7xzMSteyIXWfxa7V5cFR-4">
          <mxGeometry relative="1" as="geometry">
            <Array as="points">
              <mxPoint x="462" y="380" />
            </Array>
          </mxGeometry>
        </mxCell>
        <mxCell id="7xzMSteyIXWfxa7V5cFR-16" value="" style="curved=1;startArrow=none;endArrow=block;exitX=0.5;exitY=1.01;entryX=0.22;entryY=0.01;rounded=0;" edge="1" parent="1" source="7xzMSteyIXWfxa7V5cFR-3" target="7xzMSteyIXWfxa7V5cFR-5">
          <mxGeometry relative="1" as="geometry">
            <Array as="points">
              <mxPoint x="214" y="495" />
            </Array>
          </mxGeometry>
        </mxCell>
        <mxCell id="7xzMSteyIXWfxa7V5cFR-17" value="" style="curved=1;startArrow=none;endArrow=block;exitX=0.5;exitY=1.01;entryX=0.78;entryY=0.01;rounded=0;" edge="1" parent="1" source="7xzMSteyIXWfxa7V5cFR-4" target="7xzMSteyIXWfxa7V5cFR-5">
          <mxGeometry relative="1" as="geometry">
            <Array as="points">
              <mxPoint x="462" y="495" />
            </Array>
          </mxGeometry>
        </mxCell>
        <mxCell id="7xzMSteyIXWfxa7V5cFR-18" value="" style="curved=1;startArrow=none;endArrow=block;exitX=0.5;exitY=1.01;entryX=0.5;entryY=0.01;rounded=0;" edge="1" parent="1" source="7xzMSteyIXWfxa7V5cFR-5" target="7xzMSteyIXWfxa7V5cFR-6">
          <mxGeometry relative="1" as="geometry">
            <Array as="points" />
          </mxGeometry>
        </mxCell>
        <mxCell id="7xzMSteyIXWfxa7V5cFR-19" value="" style="curved=1;startArrow=none;endArrow=block;exitX=0.5;exitY=1.01;entryX=0.5;entryY=0;rounded=0;" edge="1" parent="1" source="7xzMSteyIXWfxa7V5cFR-6" target="7xzMSteyIXWfxa7V5cFR-7">
          <mxGeometry relative="1" as="geometry">
            <Array as="points" />
          </mxGeometry>
        </mxCell>
        <mxCell id="7xzMSteyIXWfxa7V5cFR-20" value="No" style="curved=1;startArrow=none;endArrow=block;exitX=0.5;exitY=1;entryX=0.5;entryY=0;rounded=0;" edge="1" parent="1" source="7xzMSteyIXWfxa7V5cFR-7" target="7xzMSteyIXWfxa7V5cFR-8">
          <mxGeometry relative="1" as="geometry">
            <Array as="points" />
          </mxGeometry>
        </mxCell>
        <mxCell id="7xzMSteyIXWfxa7V5cFR-21" value="" style="curved=1;startArrow=none;endArrow=block;exitX=0.5;exitY=1;entryX=0.5;entryY=0;rounded=0;" edge="1" parent="1" source="7xzMSteyIXWfxa7V5cFR-8" target="7xzMSteyIXWfxa7V5cFR-9">
          <mxGeometry relative="1" as="geometry">
            <Array as="points" />
          </mxGeometry>
        </mxCell>
        <mxCell id="7xzMSteyIXWfxa7V5cFR-22" value="No" style="curved=1;startArrow=none;endArrow=block;exitX=0.85;exitY=1;entryX=0.5;entryY=0;rounded=0;" edge="1" parent="1" source="7xzMSteyIXWfxa7V5cFR-9" target="7xzMSteyIXWfxa7V5cFR-10">
          <mxGeometry relative="1" as="geometry">
            <Array as="points">
              <mxPoint x="427" y="1450" />
            </Array>
          </mxGeometry>
        </mxCell>
        <mxCell id="7xzMSteyIXWfxa7V5cFR-23" value="Yes" style="curved=1;startArrow=none;endArrow=block;exitX=0.15;exitY=1;entryX=0.21;entryY=0.01;rounded=0;" edge="1" parent="1" source="7xzMSteyIXWfxa7V5cFR-9" target="7xzMSteyIXWfxa7V5cFR-11">
          <mxGeometry relative="1" as="geometry">
            <Array as="points">
              <mxPoint x="248" y="1450" />
              <mxPoint x="248" y="1589" />
            </Array>
          </mxGeometry>
        </mxCell>
        <mxCell id="7xzMSteyIXWfxa7V5cFR-24" value="" style="curved=1;startArrow=none;endArrow=block;exitX=0.5;exitY=1;entryX=0.79;entryY=0.01;rounded=0;" edge="1" parent="1" source="7xzMSteyIXWfxa7V5cFR-10" target="7xzMSteyIXWfxa7V5cFR-11">
          <mxGeometry relative="1" as="geometry">
            <Array as="points">
              <mxPoint x="427" y="1589" />
            </Array>
          </mxGeometry>
        </mxCell>
        <mxCell id="7xzMSteyIXWfxa7V5cFR-25" value="Yes" style="curved=1;startArrow=none;endArrow=block;exitX=0.08;exitY=1;rounded=0;entryX=0;entryY=0.75;entryDx=0;entryDy=0;" edge="1" parent="1" target="7xzMSteyIXWfxa7V5cFR-11">
          <mxGeometry relative="1" as="geometry">
            <Array as="points">
              <mxPoint x="120" y="940" />
              <mxPoint x="100" y="1060" />
            </Array>
            <mxPoint x="251" y="890" as="sourcePoint" />
            <mxPoint x="110" y="1380" as="targetPoint" />
          </mxGeometry>
        </mxCell>
      </root>
    </mxGraphModel>
  </diagram>
</mxfile>
